<mxfile host="app.diagrams.net" agent="Mozilla/5.0 (Windows NT 10.0; Win64; x64) AppleWebKit/537.36 (KHTML, like Gecko) Chrome/139.0.0.0 Safari/537.36" version="28.1.1">
  <diagram name="Page-1" id="SnqhIsRG0zqyrfoJ3xq2">
    <mxGraphModel dx="1123" dy="596" grid="1" gridSize="10" guides="1" tooltips="1" connect="1" arrows="1" fold="1" page="1" pageScale="1" pageWidth="850" pageHeight="1100" math="0" shadow="0">
      <root>
        <mxCell id="0" />
        <mxCell id="1" parent="0" />
        <mxCell id="RNnHc35-KHPNboXYd_CL-30" style="edgeStyle=orthogonalEdgeStyle;rounded=0;orthogonalLoop=1;jettySize=auto;html=1;dashed=1;dashPattern=8 8;fillColor=#d5e8d4;strokeColor=#82b366;endArrow=none;endFill=0;" parent="1" source="RNnHc35-KHPNboXYd_CL-23" target="RNnHc35-KHPNboXYd_CL-2" edge="1">
          <mxGeometry relative="1" as="geometry" />
        </mxCell>
        <mxCell id="RNnHc35-KHPNboXYd_CL-1" value="" style="sketch=0;outlineConnect=0;fontColor=#232F3E;gradientColor=none;fillColor=#232F3D;strokeColor=none;dashed=0;verticalLabelPosition=bottom;verticalAlign=top;align=center;html=1;fontSize=12;fontStyle=0;aspect=fixed;pointerEvents=1;shape=mxgraph.aws4.traditional_server;" parent="1" vertex="1">
          <mxGeometry x="107.5" y="376" width="45" height="78" as="geometry" />
        </mxCell>
        <mxCell id="RNnHc35-KHPNboXYd_CL-2" value="" style="sketch=0;outlineConnect=0;fontColor=#232F3E;gradientColor=none;fillColor=#232F3D;strokeColor=none;dashed=0;verticalLabelPosition=bottom;verticalAlign=top;align=center;html=1;fontSize=12;fontStyle=0;aspect=fixed;pointerEvents=1;shape=mxgraph.aws4.traditional_server;" parent="1" vertex="1">
          <mxGeometry x="107.5" y="180" width="45" height="78" as="geometry" />
        </mxCell>
        <mxCell id="RNnHc35-KHPNboXYd_CL-29" style="rounded=0;orthogonalLoop=1;jettySize=auto;html=1;dashed=1;dashPattern=8 8;endArrow=none;endFill=0;fillColor=#d5e8d4;strokeColor=#82b366;" parent="1" source="RNnHc35-KHPNboXYd_CL-3" target="RNnHc35-KHPNboXYd_CL-2" edge="1">
          <mxGeometry relative="1" as="geometry" />
        </mxCell>
        <mxCell id="RNnHc35-KHPNboXYd_CL-3" value="" style="verticalLabelPosition=bottom;html=1;verticalAlign=top;align=center;strokeColor=none;fillColor=#00BEF2;shape=mxgraph.azure.computer;pointerEvents=1;" parent="1" vertex="1">
          <mxGeometry x="240" y="476" width="50" height="45" as="geometry" />
        </mxCell>
        <mxCell id="RNnHc35-KHPNboXYd_CL-4" value="" style="verticalLabelPosition=bottom;html=1;verticalAlign=top;align=center;strokeColor=#b85450;fillColor=#f8cecc;shape=mxgraph.azure.computer;pointerEvents=1;" parent="1" vertex="1">
          <mxGeometry x="560" y="392.5" width="50" height="45" as="geometry" />
        </mxCell>
        <mxCell id="RNnHc35-KHPNboXYd_CL-5" value="" style="sketch=0;points=[[0.5,0,0],[1,0.5,0],[0.5,1,0],[0,0.5,0],[0.145,0.145,0],[0.8555,0.145,0],[0.855,0.8555,0],[0.145,0.855,0]];verticalLabelPosition=bottom;html=1;verticalAlign=top;aspect=fixed;align=center;pointerEvents=1;shape=mxgraph.cisco19.rect;prIcon=router;fillColor=#FAFAFA;strokeColor=#005073;" parent="1" vertex="1">
          <mxGeometry x="400" y="230" width="50" height="50" as="geometry" />
        </mxCell>
        <mxCell id="RNnHc35-KHPNboXYd_CL-6" value="" style="sketch=0;points=[[0.015,0.015,0],[0.985,0.015,0],[0.985,0.985,0],[0.015,0.985,0],[0.25,0,0],[0.5,0,0],[0.75,0,0],[1,0.25,0],[1,0.5,0],[1,0.75,0],[0.75,1,0],[0.5,1,0],[0.25,1,0],[0,0.75,0],[0,0.5,0],[0,0.25,0]];verticalLabelPosition=bottom;html=1;verticalAlign=top;aspect=fixed;align=center;pointerEvents=1;shape=mxgraph.cisco19.rect;prIcon=l2_switch;fillColor=#FAFAFA;strokeColor=#005073;" parent="1" vertex="1">
          <mxGeometry x="400" y="390" width="50" height="50" as="geometry" />
        </mxCell>
        <mxCell id="RNnHc35-KHPNboXYd_CL-7" value="&lt;font style=&quot;font-size: 14px;&quot;&gt;&lt;b&gt;Internet&lt;/b&gt;&lt;/font&gt;" style="ellipse;shape=cloud;whiteSpace=wrap;html=1;" parent="1" vertex="1">
          <mxGeometry x="365" y="60" width="120" height="80" as="geometry" />
        </mxCell>
        <mxCell id="RNnHc35-KHPNboXYd_CL-8" style="edgeStyle=orthogonalEdgeStyle;rounded=0;orthogonalLoop=1;jettySize=auto;html=1;entryX=0;entryY=0.5;entryDx=0;entryDy=0;entryPerimeter=0;" parent="1" source="RNnHc35-KHPNboXYd_CL-3" target="RNnHc35-KHPNboXYd_CL-6" edge="1">
          <mxGeometry relative="1" as="geometry" />
        </mxCell>
        <mxCell id="RNnHc35-KHPNboXYd_CL-9" style="edgeStyle=orthogonalEdgeStyle;rounded=0;orthogonalLoop=1;jettySize=auto;html=1;entryX=1;entryY=0.5;entryDx=0;entryDy=0;entryPerimeter=0;" parent="1" source="RNnHc35-KHPNboXYd_CL-4" target="RNnHc35-KHPNboXYd_CL-6" edge="1">
          <mxGeometry relative="1" as="geometry" />
        </mxCell>
        <mxCell id="RNnHc35-KHPNboXYd_CL-18" style="edgeStyle=orthogonalEdgeStyle;rounded=0;orthogonalLoop=1;jettySize=auto;html=1;entryX=0;entryY=0.5;entryDx=0;entryDy=0;entryPerimeter=0;" parent="1" source="RNnHc35-KHPNboXYd_CL-2" target="RNnHc35-KHPNboXYd_CL-6" edge="1">
          <mxGeometry relative="1" as="geometry" />
        </mxCell>
        <mxCell id="RNnHc35-KHPNboXYd_CL-19" style="edgeStyle=orthogonalEdgeStyle;rounded=0;orthogonalLoop=1;jettySize=auto;html=1;entryX=0;entryY=0.5;entryDx=0;entryDy=0;entryPerimeter=0;" parent="1" source="RNnHc35-KHPNboXYd_CL-1" target="RNnHc35-KHPNboXYd_CL-6" edge="1">
          <mxGeometry relative="1" as="geometry" />
        </mxCell>
        <mxCell id="RNnHc35-KHPNboXYd_CL-20" style="edgeStyle=orthogonalEdgeStyle;rounded=0;orthogonalLoop=1;jettySize=auto;html=1;entryX=0.5;entryY=0;entryDx=0;entryDy=0;entryPerimeter=0;" parent="1" source="RNnHc35-KHPNboXYd_CL-5" target="RNnHc35-KHPNboXYd_CL-6" edge="1">
          <mxGeometry relative="1" as="geometry" />
        </mxCell>
        <mxCell id="RNnHc35-KHPNboXYd_CL-21" style="edgeStyle=orthogonalEdgeStyle;rounded=0;orthogonalLoop=1;jettySize=auto;html=1;entryX=0.5;entryY=0;entryDx=0;entryDy=0;entryPerimeter=0;" parent="1" source="RNnHc35-KHPNboXYd_CL-7" target="RNnHc35-KHPNboXYd_CL-5" edge="1">
          <mxGeometry relative="1" as="geometry" />
        </mxCell>
        <mxCell id="RNnHc35-KHPNboXYd_CL-22" value="&lt;div style=&quot;text-align: justify;&quot;&gt;&lt;b style=&quot;background-color: transparent; color: light-dark(rgb(0, 0, 0), rgb(255, 255, 255));&quot;&gt;Domain: Talha.com&lt;/b&gt;&lt;/div&gt;&lt;div style=&quot;text-align: justify;&quot;&gt;&lt;b&gt;Network: 192.168.10.0/24&lt;/b&gt;&lt;/div&gt;&lt;div style=&quot;text-align: justify;&quot;&gt;&lt;b&gt;Splunk Server: 192.168.10.10&lt;/b&gt;&lt;/div&gt;&lt;div style=&quot;text-align: justify;&quot;&gt;&lt;b&gt;Active Directory: 192.168.10.7&lt;/b&gt;&lt;/div&gt;&lt;div style=&quot;text-align: justify;&quot;&gt;&lt;b&gt;Attacker: 192.168.10.250&lt;/b&gt;&lt;/div&gt;" style="text;html=1;align=center;verticalAlign=middle;resizable=0;points=[];autosize=1;strokeColor=none;fillColor=none;" parent="1" vertex="1">
          <mxGeometry x="35" y="38" width="190" height="90" as="geometry" />
        </mxCell>
        <mxCell id="RNnHc35-KHPNboXYd_CL-24" value="&lt;b&gt;Active Directory&lt;/b&gt;&lt;div&gt;&lt;b&gt;192.168.10.7&lt;/b&gt;&lt;/div&gt;&lt;div&gt;&lt;b&gt;Splunk Universal Forwarder&lt;/b&gt;&lt;/div&gt;&lt;div&gt;&lt;b&gt;Sysmon&lt;/b&gt;&lt;/div&gt;" style="text;html=1;align=center;verticalAlign=middle;resizable=0;points=[];autosize=1;strokeColor=none;fillColor=none;" parent="1" vertex="1">
          <mxGeometry x="40" y="463.5" width="180" height="70" as="geometry" />
        </mxCell>
        <mxCell id="RNnHc35-KHPNboXYd_CL-25" value="&lt;b&gt;Windows 10&lt;/b&gt;&lt;div&gt;&lt;b&gt;IP: DHCP&lt;/b&gt;&lt;/div&gt;&lt;div&gt;&lt;b&gt;Splunk Universal Forwarder&lt;/b&gt;&lt;/div&gt;&lt;div&gt;&lt;b&gt;Sysmon&lt;/b&gt;&lt;/div&gt;&lt;div&gt;&lt;b&gt;Atomic Red Team&lt;/b&gt;&lt;/div&gt;" style="text;html=1;align=center;verticalAlign=middle;resizable=0;points=[];autosize=1;strokeColor=none;fillColor=none;" parent="1" vertex="1">
          <mxGeometry x="175" y="520" width="180" height="90" as="geometry" />
        </mxCell>
        <mxCell id="RNnHc35-KHPNboXYd_CL-26" value="&lt;b&gt;Kali Linux&lt;/b&gt;&lt;div&gt;&lt;b&gt;IP: 192.168.10.250&lt;/b&gt;&lt;/div&gt;" style="text;html=1;align=center;verticalAlign=middle;resizable=0;points=[];autosize=1;strokeColor=none;fillColor=none;" parent="1" vertex="1">
          <mxGeometry x="520" y="450" width="130" height="40" as="geometry" />
        </mxCell>
        <mxCell id="TwYbiKJ8WfhexK3DddmN-1" value="" style="edgeStyle=orthogonalEdgeStyle;rounded=0;orthogonalLoop=1;jettySize=auto;html=1;dashed=1;dashPattern=8 8;fillColor=#d5e8d4;strokeColor=#82b366;endArrow=none;endFill=0;" edge="1" parent="1" source="RNnHc35-KHPNboXYd_CL-1" target="RNnHc35-KHPNboXYd_CL-23">
          <mxGeometry relative="1" as="geometry">
            <mxPoint x="130" y="376" as="sourcePoint" />
            <mxPoint x="130" y="258" as="targetPoint" />
          </mxGeometry>
        </mxCell>
        <mxCell id="RNnHc35-KHPNboXYd_CL-23" value="&lt;b&gt;Splunk Server&lt;/b&gt;&lt;div&gt;&lt;b&gt;192.168.10.10&lt;/b&gt;&lt;/div&gt;" style="text;html=1;align=center;verticalAlign=middle;resizable=0;points=[];autosize=1;strokeColor=none;fillColor=none;" parent="1" vertex="1">
          <mxGeometry x="80" y="270" width="100" height="40" as="geometry" />
        </mxCell>
      </root>
    </mxGraphModel>
  </diagram>
</mxfile>
